<?xml version="1.0" encoding="utf-8"?>
<!-- Generator: Adobe Illustrator 22.0.1, SVG Export Plug-In . SVG Version: 6.00 Build 0)  -->
<svg version="1.1" id="Layer_1" xmlns="http://www.w3.org/2000/svg" xmlns:xlink="http://www.w3.org/1999/xlink" x="0px" y="0px"
	 viewBox="0 0 100 125" style="enable-background:new 0 0 100 125;" xml:space="preserve">
<g>
	<ellipse cx="53.4" cy="29.2" rx="20.7" ry="21.7"/>
	<path d="M15.3,83.1c0.1,0,0.1,0,0.2,0c0.2,0,0.4,0.1,0.6,0.1s0.5,0,0.8,0l0,0c4.4,0,7.9-3.5,7.9-7.9c0-2.6-1.3-5-3.3-6.4
		c-1.3-0.9-2.9-1.5-4.6-1.5c-0.1,0-0.2,0-0.3,0l0,0C12.4,67.6,9,71,9,75.3c0,3.6,2.4,6.7,5.7,7.6l0,0C14.8,83,15,83,15.3,83.1z"/>
	<path d="M95,78.1c-2.4-19.5-27.7-25.8-30.8-26.5l-10.6,8.3l5.1,18.4l-5.1,8l-4.8-7.8L53.6,60L43,51.6c-1.8,0.4-11,2.7-18.9,8.3
		h-5.5v-6.6c2.4-0.4,4.4-1.6,5.8-3.5c1.3-1.7,2.1-3.9,2.1-6.2V31.4h-1.9H8.9H7v12.2c0,2.3,0.7,4.5,2.1,6.2c1.5,1.9,3.5,3.1,5.8,3.5
		v6.6H5v4.8h13.6c-0.1,0.1-0.1,0.1-0.2,0.2c5,0.8,8.9,5.2,8.9,10.4c0,5.1-3.7,9.4-8.6,10.4c6.2,3.2,17.3,6.9,34.8,6.9v-0.1v0.1
		c22.7,0,34.5-6.2,39.2-9.4C94.4,82,95.2,80.1,95,78.1z M10.7,44.2c0-0.2,0-0.3,0-0.5v-8.5h12.1v8.5c0,0.2,0,0.3,0,0.5H10.7z
		 M78.5,75.3h-12v-3.2h12.1L78.5,75.3L78.5,75.3z"/>
</g>
</svg>
