<?xml version="1.0" encoding="utf-8"?>
<!-- Generator: Adobe Illustrator 22.0.1, SVG Export Plug-In . SVG Version: 6.00 Build 0)  -->
<svg version="1.1"
	 id="Layer_1" xmlns:cc="http://creativecommons.org/ns#" xmlns:dc="http://purl.org/dc/elements/1.1/" xmlns:inkscape="http://www.inkscape.org/namespaces/inkscape" xmlns:rdf="http://www.w3.org/1999/02/22-rdf-syntax-ns#" xmlns:sodipodi="http://sodipodi.sourceforge.net/DTD/sodipodi-0.dtd" xmlns:svg="http://www.w3.org/2000/svg"
	 xmlns="http://www.w3.org/2000/svg" xmlns:xlink="http://www.w3.org/1999/xlink" x="0px" y="0px" viewBox="0 0 100 125"
	 style="enable-background:new 0 0 100 125;" xml:space="preserve">
<g transform="translate(0,-952.36218)">
	<path d="M44.2,964.4c-2,0-3.8,0.8-5.1,2.5c-1.8,0-3.3,0.2-5,1c-4-3.9-11-3.9-11,3.9c-7,2-6,5.9-2,8.8h8c0,11.8,0,17.7,5,17.7
		c5,0,5-5.9,6-17.7H67c4-3.9,4-6.9,0-8.8c-1-5.9-6-7.8-10-3.9c-2-1-4-1-6,0C49.3,965.6,46.7,964.4,44.2,964.4L44.2,964.4z
		 M21.1,982.6v1.1c1.8,0.2,3.9,0.5,6.1,0.9c0-0.7,0-1.3,0-2.1C25.1,982.6,23.1,982.6,21.1,982.6L21.1,982.6z M41.9,982.6
		c-0.1,1.8-0.3,3.4-0.4,4.9c5.1,1.5,10.8,3.3,16.9,1.2c2.3-1,6.1-0.9,8.6-1v-1.1h5.2c2.9,0,5.7,2.9,5.8,5.9v22c0,3.2-2.9,5.9-6,5.9
		h-5v-28.7c-2.4,0.2-5.1-0.2-7.3,0.7c-6.8,2.4-13.1,0.5-18.7-1c-0.2,1-0.3,2-0.5,2.9c-0.4,1.6-1,3.1-2.1,4.2
		c-1.1,1.1-2.7,1.7-4.3,1.7c-1.6,0-3.2-0.6-4.3-1.7c-1.1-1.1-1.6-2.6-2-4.3c-0.3-1.5-0.5-3.4-0.5-5.5c-2.4-0.4-4.5-0.8-6.1-1v43.7
		H67v-7h5c5.4,0,10-4.7,10-9.9v-22c-0.1-5.7-5.1-9.8-9.8-9.9C62.1,982.6,52,982.6,41.9,982.6L41.9,982.6z M21.1,1035.4v5H67v-5H21.1
		z"/>
</g>
</svg>
